name analog
datacolumns 19
datarows 43
range 0.3645 0.3855
endheader
time	ground_force_vx	ground_force_vy	ground_force_vz	ground_force_px	ground_force_py	ground_force_pz	l_ground_force_vx	l_ground_force_vy	l_ground_force_vz	l_ground_force_px	l_ground_force_py	l_ground_force_pz	ground_torque_x	ground_torque_y	ground_torque_z	l_ground_torque_x	l_ground_torque_y	l_ground_torque_z
0.3645	-0.0	-0.0	-0.0	-9.237906455993652	-10.062506675720217	-792.925537109375	-0.0	-0.0	-0.0	-0.0	-0.0	-0.0	-0.0	-0.0	-0.0	-0.0	-0.0	-0.0
0.365	-0.0	-0.0	-0.0	-9.91563892364502	-10.593257904052734	-795.0606079101562	-0.0	-0.0	-0.0	-0.0	-0.0	-0.0	-0.0	-0.0	-0.0	-0.0	-0.0	-0.0
0.3655	-0.0	-0.0	-0.0	-10.160199165344238	-12.53750705718994	-797.7811279296875	-0.0	-0.0	-0.0	-0.0	-0.0	-0.0	-0.0	-0.0	-0.0	-0.0	-0.0	-0.0
0.366	-0.0	-0.0	-0.0	-11.42922592163086	-13.049596786499023	-799.1013793945312	-0.0	-0.0	-0.0	-0.0	-0.0	-0.0	-0.0	-0.0	-0.0	-0.0	-0.0	-0.0
0.3665	-0.0	-0.0	-0.0	-11.597366333007812	-13.880644798278809	-804.1387939453125	-0.0	-0.0	-0.0	-0.0	-0.0	-0.0	-0.0	-0.0	-0.0	-0.0	-0.0	-0.0
0.367	-0.0	-0.0	-0.0	-11.68657684326172	-15.025958061218262	-806.8098754882812	-0.0	-0.0	-0.0	-0.0	-0.0	-0.0	-0.0	-0.0	-0.0	-0.0	-0.0	-0.0
0.3675	-0.0	-0.0	-0.0	-11.749825477600098	-16.348115921020508	-806.2650146484375	-0.0	-0.0	-0.0	-0.0	-0.0	-0.0	-0.0	-0.0	-0.0	-0.0	-0.0	-0.0
0.368	-0.0	-0.0	-0.0	-10.78154754638672	-16.731948852539062	-806.9188232421875	-0.0	-0.0	-0.0	-0.0	-0.0	-0.0	-0.0	-0.0	-0.0	-0.0	-0.0	-0.0
0.3685	-0.0	-0.0	-0.0	-10.2335205078125	-17.227134704589844	-804.5919799804688	-0.0	-0.0	-0.0	-0.0	-0.0	-0.0	-0.0	-0.0	-0.0	-0.0	-0.0	-0.0
0.369	-0.0	-0.0	-0.0	-9.762367248535156	-16.65458869934082	-801.4159545898438	-0.0	-0.0	-0.0	-0.0	-0.0	-0.0	-0.0	-0.0	-0.0	-0.0	-0.0	-0.0
0.3695	-0.0	-0.0	-0.0	-8.971768379211426	-15.063037872314451	-799.9019775390625	-0.0	-0.0	-0.0	-0.0	-0.0	-0.0	-0.0	-0.0	-0.0	-0.0	-0.0	-0.0
0.37	-0.0	-0.0	-0.0	-8.10546588897705	-14.133697509765623	-795.6124267578125	-0.0	-0.0	-0.0	-0.0	-0.0	-0.0	-0.0	-0.0	-0.0	-0.0	-0.0	-0.0
0.3705	-0.0	-0.0	-0.0	-7.849749565124512	-13.013038635253906	-794.5548706054688	-0.0	-0.0	-0.0	-0.0	-0.0	-0.0	-0.0	-0.0	-0.0	-0.0	-0.0	-0.0
0.371	-0.0	-0.0	-0.0	-8.540384292602539	-12.38912582397461	-793.6947631835938	-0.0	-0.0	-0.0	-0.0	-0.0	-0.0	-0.0	-0.0	-0.0	-0.0	-0.0	-0.0
0.3715	-0.0	-0.0	-0.0	-8.512548446655273	-11.89185905456543	-789.6607666015625	-0.0	-0.0	-0.0	-0.0	-0.0	-0.0	-0.0	-0.0	-0.0	-0.0	-0.0	-0.0
0.372	-0.0	-0.0	-0.0	-8.578540802001953	-11.68855094909668	-786.7293701171875	-0.0	-0.0	-0.0	-0.0	-0.0	-0.0	-0.0	-0.0	-0.0	-0.0	-0.0	-0.0
0.3725	-0.0	-0.0	-0.0	-8.120570182800293	-11.307172775268556	-783.75537109375	-0.0	-0.0	-0.0	-0.0	-0.0	-0.0	-0.0	-0.0	-0.0	-0.0	-0.0	-0.0
0.373	-0.0	-0.0	-0.0	-6.727816581726074	-11.93114185333252	-785.4232788085938	-0.0	-0.0	-0.0	-0.0	-0.0	-0.0	-0.0	-0.0	-0.0	-0.0	-0.0	-0.0
0.3735	-0.0	-0.0	-0.0	-5.675623416900635	-12.069488525390623	-787.238037109375	-0.0	-0.0	-0.0	-0.0	-0.0	-0.0	-0.0	-0.0	-0.0	-0.0	-0.0	-0.0
0.374	-0.0	-0.0	-0.0	-4.005877494812012	-11.959315299987791	-787.9444580078125	-0.0	-0.0	-0.0	-0.0	-0.0	-0.0	-0.0	-0.0	-0.0	-0.0	-0.0	-0.0
0.3745	-0.0	-0.0	-0.0	-1.6828304529190063	-11.343877792358398	-790.7217407226562	-0.0	-0.0	-0.0	-0.0	-0.0	-0.0	-0.0	-0.0	-0.0	-0.0	-0.0	-0.0
0.375	-0.0	-0.0	-0.0	0.0529258027672767	-9.435738563537598	-792.9368286132812	-0.0	-0.0	-0.0	-0.0	-0.0	-0.0	-0.0	-0.0	-0.0	-0.0	-0.0	-0.0
0.3755	-0.0	-0.0	-0.0	1.0874238014221191	-7.515877723693848	-795.7620849609375	-0.0	-0.0	-0.0	-0.0	-0.0	-0.0	-0.0	-0.0	-0.0	-0.0	-0.0	-0.0
0.376	-0.0	-0.0	-0.0	1.2781800031661987	-6.607634544372559	-799.9258422851562	-0.0	-0.0	-0.0	-0.0	-0.0	-0.0	-0.0	-0.0	-0.0	-0.0	-0.0	-0.0
0.3765	-0.0	-0.0	-0.0	0.4341371953487396	-6.803517818450928	-799.9525146484375	-0.0	-0.0	-0.0	-0.0	-0.0	-0.0	-0.0	-0.0	-0.0	-0.0	-0.0	-0.0
0.377	-0.0	-0.0	-0.0	-0.4460525512695312	-6.993831157684326	-801.0120849609375	-0.0	-0.0	-0.0	-0.0	-0.0	-0.0	-0.0	-0.0	-0.0	-0.0	-0.0	-0.0
0.3775	-0.0	-0.0	-0.0	-0.8265776634216309	-6.471026420593262	-798.5617065429688	-0.0	-0.0	-0.0	-0.0	-0.0	-0.0	-0.0	-0.0	-0.0	-0.0	-0.0	-0.0
0.378	-0.0	-0.0	-0.0	-0.8921051025390625	-5.479081630706787	-797.83349609375	-0.0	-0.0	-0.0	-0.0	-0.0	-0.0	-0.0	-0.0	-0.0	-0.0	-0.0	-0.0
0.3785	-0.0	-0.0	-0.0	-1.016430139541626	-5.087702751159668	-797.572998046875	-0.0	-0.0	-0.0	-0.0	-0.0	-0.0	-0.0	-0.0	-0.0	-0.0	-0.0	-0.0
0.379	-0.0	-0.0	-0.0	-0.8804748058319092	-4.1426496505737305	-799.369140625	-0.0	-0.0	-0.0	-0.0	-0.0	-0.0	-0.0	-0.0	-0.0	-0.0	-0.0	-0.0
0.3795	-0.0	-0.0	-0.0	-0.9894137382507324	-3.1114730834960938	-799.1085815429688	-0.0	-0.0	-0.0	-0.0	-0.0	-0.0	-0.0	-0.0	-0.0	-0.0	-0.0	-0.0
0.38	-0.0	-0.0	-0.0	-1.1250852346420288	-2.662371873855591	-799.6450805664062	-0.0	-0.0	-0.0	-0.0	-0.0	-0.0	-0.0	-0.0	-0.0	-0.0	-0.0	-0.0
0.3805	-0.0	-0.0	-0.0	-1.7523510456085205	-2.271550416946411	-798.5751953125	-0.0	-0.0	-0.0	-0.0	-0.0	-0.0	-0.0	-0.0	-0.0	-0.0	-0.0	-0.0
0.381	-0.0	-0.0	-0.0	-2.3308868408203125	-1.1700985431671145	-798.2770385742188	-0.0	-0.0	-0.0	-0.0	-0.0	-0.0	-0.0	-0.0	-0.0	-0.0	-0.0	-0.0
0.3815	-0.0	-0.0	-0.0	-3.0768613815307617	-0.1232295334339141	-798.8480224609375	-0.0	-0.0	-0.0	-0.0	-0.0	-0.0	-0.0	-0.0	-0.0	-0.0	-0.0	-0.0
0.382	-0.0	-0.0	-0.0	-2.553215503692627	-0.3339490592479706	-797.1317138671875	-0.0	-0.0	-0.0	-0.0	-0.0	-0.0	-0.0	-0.0	-0.0	-0.0	-0.0	-0.0
0.3825	-0.0	-0.0	-0.0	-2.374963998794556	0.9355152249336244	-799.8218383789062	-0.0	-0.0	-0.0	-0.0	-0.0	-0.0	-0.0	-0.0	-0.0	-0.0	-0.0	-0.0
0.383	-0.0	-0.0	-0.0	-2.207932472229004	1.42608642578125	-800.2177124023438	-0.0	-0.0	-0.0	-0.0	-0.0	-0.0	-0.0	-0.0	-0.0	-0.0	-0.0	-0.0
0.3835	-0.0	-0.0	-0.0	-1.784210205078125	1.3147298097610474	-802.3807983398438	-0.0	-0.0	-0.0	-0.0	-0.0	-0.0	-0.0	-0.0	-0.0	-0.0	-0.0	-0.0
0.384	-0.0	-0.0	-0.0	-2.2530746459960938	1.381860375404358	-805.5131225585938	-0.0	-0.0	-0.0	-0.0	-0.0	-0.0	-0.0	-0.0	-0.0	-0.0	-0.0	-0.0
0.3845	-0.0	-0.0	-0.0	-1.4383543729782104	0.0329291820526123	-809.7980346679688	-0.0	-0.0	-0.0	-0.0	-0.0	-0.0	-0.0	-0.0	-0.0	-0.0	-0.0	-0.0
0.385	-0.0	-0.0	-0.0	-1.662151336669922	-1.291584014892578	-810.7213745117188	-0.0	-0.0	-0.0	-0.0	-0.0	-0.0	-0.0	-0.0	-0.0	-0.0	-0.0	-0.0
0.3855	-0.0	-0.0	-0.0	-1.327244997024536	-2.673912048339844	-814.2525024414062	-0.0	-0.0	-0.0	-0.0	-0.0	-0.0	-0.0	-0.0	-0.0	-0.0	-0.0	-0.0
